Coordinates
version=1
nRows=13
nColumns=40
inDegrees=yes

Units are S.I. units (second, meters, Newtons, ...)
Angles are in degrees.

endheader
time	pelvis_tilt	pelvis_list	pelvis_rotation	pelvis_tx	pelvis_ty	pelvis_tz	hip_flexion_r	hip_adduction_r	hip_rotation_r	knee_angle_r	knee_angle_r_beta	ankle_angle_r	subtalar_angle_r	mtp_angle_r	hip_flexion_l	hip_adduction_l	hip_rotation_l	knee_angle_l	knee_angle_l_beta	ankle_angle_l	subtalar_angle_l	mtp_angle_l	lumbar_extension	lumbar_bending	lumbar_rotation	arm_flex_r	arm_add_r	arm_rot_r	elbow_flex_r	pro_sup_r	wrist_flex_r	wrist_dev_r	arm_flex_l	arm_add_l	arm_rot_l	elbow_flex_l	pro_sup_l	wrist_flex_l	wrist_dev_l
      7.23392857	     -3.72981485	     -5.61788177	      5.83432071	      1.04976447	      0.92309956	      0.52477354	      0.49037624	      5.94943572	    -18.34049020	     10.47467557	     10.47467557	     15.62158614	     -0.38457915	     -4.92655259	     27.52752064	     -8.18348559	      0.32678363	     21.98140535	     21.98140535	      3.78883343	    -10.20690207	      1.65998335	     -8.32924482	      3.86811274	      3.41466916	     43.20902110	    -17.23738161	    -11.08785516	     97.25041873	     44.66008169	      0.00000000	      0.00000000	    -12.87922109	     -7.38740210	     -0.51759855	     31.41286775	     45.64140297	      0.00000000	      0.00000000
      7.25285714	     -3.79638207	     -5.63116295	      5.82780472	      1.05042771	      0.92244374	      0.52173287	      0.15917928	      5.77824667	    -18.24113422	     10.59757569	     10.59757569	     15.87517519	     -0.49238594	     -4.82820738	     27.48150559	     -8.04267794	      0.34304545	     22.70089406	     22.70089406	      3.86656671	    -10.67881673	      1.41042579	     -8.29446170	      3.77448134	      3.48568883	     43.32883948	    -17.16636446	    -11.15377350	     96.99020793	     44.67623901	      0.00000000	      0.00000000	    -12.14024225	     -7.47429481	     -0.62563305	     31.81406930	     45.67091995	      0.00000000	      0.00000000
      7.27178571	     -3.89785349	     -5.56381190	      5.81570139	      1.05106446	      0.92194365	      0.51847794	     -0.13224074	      5.49646304	    -18.15417430	     10.72275067	     10.72275067	     16.08100503	     -0.60856517	     -4.74671810	     27.40295426	     -7.79281355	      0.34781128	     23.31491335	     23.31491335	      4.05258010	    -11.06284762	      1.21169446	     -8.25467012	      3.61002321	      3.48043532	     43.21805482	    -17.00058392	    -11.14337562	     96.71143291	     44.68701792	      0.00000000	      0.00000000	    -11.24133598	     -7.61558755	     -0.71590958	     32.26195281	     45.69893888	      0.00000000	      0.00000000
      7.29071429	     -3.99146076	     -5.54352695	      5.76211431	      1.05164163	      0.92146060	      0.51511223	     -0.32721624	      5.22089585	    -17.99246100	     11.05059402	     11.05059402	     16.35079083	     -0.78517233	     -4.54649453	     27.41117380	     -7.55844459	      0.53664616	     24.08365445	     24.08365445	      4.34541078	    -11.64496529	      1.05437678	     -8.21234634	      3.50152645	      3.59943900	     43.06586560	    -17.02398823	    -11.32194301	     96.04106337	     44.71860877	      0.00000000	      0.00000000	    -10.31814101	     -7.74426453	     -0.91506115	     32.92973929	     45.74302623	      0.00000000	      0.00000000
      7.30964286	     -4.15187573	     -5.49026569	      5.67767244	      1.05211420	      0.92106455	      0.51163092	     -0.39373212	      4.87185099	    -17.84799137	     11.47931333	     11.47931333	     16.63341561	     -0.99231201	     -4.09454005	     27.43824191	     -7.25187090	      0.76974030	     24.74971891	     24.74971891	      4.75627877	    -12.27717410	      1.15581544	     -8.10131619	      3.33823036	      3.77819492	     42.85415517	    -17.03779194	    -11.61929991	     94.94300869	     44.77101676	      0.00000000	      0.00000000	     -9.32386434	     -7.87214798	     -1.29803444	     33.91840451	     45.81396204	      0.00000000	      0.00000000
      7.32857143	     -4.20492953	     -5.40390537	      5.55335060	      1.05271287	      0.92100438	      0.50811151	     -0.70315728	      4.51501821	    -17.73626842	     11.65770273	     11.65770273	     16.67841482	     -1.01401287	     -3.97510195	     27.27640573	     -6.97492005	      0.80117417	     25.30594276	     25.30594276	      5.21536936	    -12.64607742	      1.02143021	     -8.14286764	      3.19875794	      3.76048896	     42.46479021	    -16.72227253	    -11.51533874	     94.50958994	     44.78159339	      0.00000000	      0.00000000	     -8.23820929	     -8.07037020	     -1.42415410	     34.46473887	     45.84804189	      0.00000000	      0.00000000
      7.34750000	     -4.34406439	     -5.35491836	      5.33800703	      1.05316799	      0.92085872	      0.50460682	     -0.71518897	      4.11049235	    -17.60306794	     12.23840259	     12.23840259	     16.92362758	     -1.01734774	     -3.58482190	     27.24995812	     -6.70432820	      0.96647166	     25.94604223	     25.94604223	      5.86751827	    -13.20891283	      1.43027232	     -8.02877078	      3.05787835	      4.09837590	     42.12640625	    -16.89697669	    -11.83809724	     92.77524515	     44.85392178	      0.00000000	      0.00000000	     -7.16152987	     -8.20966294	     -1.92590585	     35.62395847	     45.93262286	      0.00000000	      0.00000000
      7.36642857	     -4.43045946	     -5.28563959	      5.09258117	      1.05361767	      0.92096614	      0.50108200	     -0.80979246	      3.67655611	    -17.51611746	     12.74574432	     12.74574432	     17.01165231	     -0.90239988	     -3.22519125	     27.09283997	     -6.45225505	      0.98171183	     26.45638269	     26.45638269	      6.57398525	    -13.54545473	      1.87631206	     -8.02248495	      2.92349597	      4.21519405	     41.75195937	    -16.69455864	    -11.91239407	     91.24335903	     44.91101454	      0.00000000	      0.00000000	     -6.12936439	     -8.38033063	     -2.41843091	     36.62219826	     46.01266241	      0.00000000	      0.00000000
      7.38535714	     -4.49731772	     -5.24187313	      4.83681315	      1.05406890	      0.92124534	      0.49755505	     -0.90939356	      3.25065674	    -17.51539638	     13.29962514	     13.29962514	     17.32540791	     -0.54523809	     -2.31193104	     26.92467345	     -6.24634699	      0.89142895	     27.00768757	     27.00768757	      7.79794235	    -13.59137724	      3.57461889	     -7.99242597	      2.86670292	      3.54864912	     41.92818083	    -15.69299841	    -11.56186847	     88.74077488	     45.00536656	      0.00000000	      0.00000000	     -5.56043408	     -8.48073202	     -3.90633891	     38.03262356	     46.20313521	      0.00000000	      0.00000000
      7.40428571	     -4.56386732	     -5.20357364	      4.52347747	      1.05459836	      0.92149850	      0.49414782	     -0.99496342	      2.84516235	    -17.35086762	     13.83120292	     13.83120292	     17.26151793	     -0.51859282	     -2.36908296	     26.61469597	     -6.08068668	      0.73831901	     27.28876207	     27.28876207	      8.34473032	    -13.84049170	      3.47441928	     -7.95721639	      2.80073742	      3.86602872	     41.07819187	    -15.75689371	    -11.47515733	     87.61237417	     45.03876143	      0.00000000	      0.00000000	     -4.26275584	     -8.69580233	     -4.11887960	     38.66174385	     46.24650235	      0.00000000	      0.00000000
      7.42321429	     -4.67240341	     -5.17410772	      4.20486768	      1.05494771	      0.92180304	      0.49072970	     -0.93763891	      2.40109519	    -17.22031631	     14.52397474	     14.52397474	     17.19369938	     -0.39387044	     -2.49755487	     26.30108161	     -5.91507335	      0.54769814	     27.44375545	     27.44375545	      8.84118661	    -14.06134078	      3.62478240	     -7.86091955	      2.75346536	      4.06168155	     40.42829944	    -15.74307430	    -11.49220146	     85.75253269	     45.10165576	      0.00000000	      0.00000000	     -2.87643540	     -8.91932900	     -4.34419813	     39.30058145	     46.29044971	      0.00000000	      0.00000000
      7.44214286	     -4.70864514	     -5.28265685	      3.90510821	      1.05538947	      0.92230516	      0.48738510	     -1.10794528	      2.18224810	    -17.07348006	     14.86538756	     14.86538756	     16.84960508	     -0.30091486	     -2.45750401	     25.90387750	     -5.89500999	      0.43375158	     27.57226699	     27.57226699	      9.30976058	    -14.29687618	      3.49820462	     -7.93297431	      2.89496250	      3.82910141	     39.60534041	    -15.30954891	    -11.29768065	     85.25356850	     45.10800907	      0.00000000	      0.00000000	     -1.69294853	     -9.24429899	     -4.40407642	     39.73109266	     46.31424093	      0.00000000	      0.00000000
      7.46107143	     -4.71543894	     -5.06036759	      3.53594182	      1.05574703	      0.92282509	      0.48388731	     -0.95639119	      1.44258517	    -16.93046018	     15.97444365	     15.97444365	     16.84415734	     -0.28844948	     -2.78081656	     25.33472507	     -5.56054303	      0.03715512	     27.53538845	     27.53538845	      9.72559479	    -14.38670318	      3.67190727	     -7.86112756	      2.69550099	      4.27395847	     38.54371375	    -15.49493050	    -11.35120258	     82.51122300	     45.19695576	      0.00000000	      0.00000000	     -0.18781572	     -9.56066635	     -4.47630206	     40.30744624	     46.34195453	      0.00000000	      0.00000000
